<svg width="48" height="48" viewBox="0 0 48 48" fill="none" xmlns="http://www.w3.org/2000/svg">
<g clip-path="url(#clip0_13_427)">
<path d="M47.79 23.89C47.79 10.7 37.09 0 23.89 0C10.69 0 0 10.7 0 23.89C0 35.82 8.74 45.7 20.16 47.49V30.79H14.09V23.88H20.16V18.62C20.16 12.63 23.73 9.33 29.19 9.33C31.8 9.33 34.54 9.8 34.54 9.8V15.68H31.53C28.56 15.68 27.64 17.52 27.64 19.41V23.89H34.27L33.21 30.8H27.64V47.5C39.06 45.71 47.8 35.82 47.8 23.9" fill="#5C5C5B"/>
<path d="M33.19 30.8L34.25 23.89H27.62V19.41C27.62 17.52 28.55 15.68 31.51 15.68H34.52V9.79996C34.52 9.79996 31.79 9.32996 29.17 9.32996C23.71 9.32996 20.15 12.64 20.15 18.63V23.89H14.08V30.8H20.15V47.5C21.37 47.69 22.61 47.79 23.88 47.79C25.15 47.79 26.4 47.69 27.61 47.5V30.8H33.18H33.19Z" fill="white"/>
</g>
<defs>
<clipPath id="clip0_13_427">
<rect width="47.79" height="47.78" fill="white"/>
</clipPath>
</defs>
</svg>
