<svg width="48" height="48" viewBox="0 0 48 48" fill="none" xmlns="http://www.w3.org/2000/svg">
<g clip-path="url(#clip0_13_430)">
<path d="M23.89 0C37.08 0 47.78 10.7 47.78 23.89C47.78 37.08 37.08 47.78 23.89 47.78C10.7 47.78 0 37.09 0 23.89C0 10.69 10.7 0 23.89 0Z" fill="#5C5C5B"/>
<path d="M23.89 11.56C27.91 11.56 28.38 11.57 29.97 11.65C31.44 11.72 32.23 11.96 32.76 12.17C33.46 12.44 33.96 12.77 34.49 13.29C35.02 13.82 35.34 14.32 35.61 15.02C35.82 15.55 36.06 16.35 36.13 17.81C36.2 19.4 36.22 19.87 36.22 23.89C36.22 27.91 36.21 28.38 36.13 29.97C36.06 31.44 35.82 32.23 35.61 32.76C35.34 33.46 35.01 33.96 34.49 34.49C33.96 35.02 33.46 35.34 32.76 35.61C32.23 35.82 31.43 36.06 29.97 36.13C28.38 36.2 27.91 36.22 23.89 36.22C19.87 36.22 19.4 36.21 17.81 36.13C16.34 36.06 15.55 35.82 15.02 35.61C14.32 35.34 13.82 35.01 13.29 34.49C12.76 33.96 12.44 33.46 12.17 32.76C11.96 32.23 11.72 31.43 11.65 29.97C11.58 28.38 11.56 27.91 11.56 23.89C11.56 19.87 11.57 19.4 11.65 17.81C11.72 16.34 11.96 15.55 12.17 15.02C12.44 14.32 12.77 13.82 13.29 13.29C13.82 12.76 14.32 12.44 15.02 12.17C15.55 11.96 16.35 11.72 17.81 11.65C19.4 11.58 19.87 11.56 23.89 11.56ZM23.89 8.84998C19.8 8.84998 19.29 8.86997 17.69 8.93997C16.09 9.00997 14.99 9.26998 14.04 9.63998C13.05 10.02 12.21 10.54 11.38 11.38C10.54 12.22 10.03 13.06 9.64001 14.04C9.27001 15 9.01001 16.09 8.94001 17.69C8.87001 19.3 8.85001 19.81 8.85001 23.89C8.85001 27.97 8.87001 28.49 8.94001 30.09C9.01001 31.69 9.27001 32.78 9.64001 33.74C10.03 34.73 10.54 35.57 11.38 36.41C12.22 37.25 13.06 37.76 14.04 38.15C15 38.52 16.09 38.78 17.69 38.85C19.29 38.92 19.81 38.94 23.89 38.94C27.97 38.94 28.49 38.92 30.09 38.85C31.69 38.78 32.79 38.52 33.74 38.15C34.73 37.76 35.57 37.25 36.4 36.41C37.24 35.57 37.75 34.73 38.14 33.74C38.51 32.78 38.77 31.69 38.84 30.09C38.91 28.49 38.93 27.97 38.93 23.89C38.93 19.81 38.91 19.29 38.84 17.69C38.77 16.09 38.51 15 38.14 14.04C37.75 13.05 37.24 12.21 36.4 11.38C35.56 10.54 34.72 10.03 33.74 9.63998C32.78 9.26998 31.69 9.00997 30.09 8.93997C28.49 8.86997 27.97 8.84998 23.89 8.84998Z" fill="white"/>
<path d="M23.89 16.17C19.62 16.17 16.16 19.63 16.16 23.9C16.16 28.17 19.62 31.62 23.89 31.62C28.16 31.62 31.61 28.16 31.61 23.9C31.61 19.64 28.15 16.17 23.89 16.17ZM23.89 28.91C21.12 28.91 18.87 26.67 18.87 23.9C18.87 21.13 21.12 18.89 23.89 18.89C26.66 18.89 28.9 21.13 28.9 23.9C28.9 26.67 26.66 28.91 23.89 28.91Z" fill="white"/>
<path d="M33.73 15.8601C33.73 16.8601 32.92 17.6701 31.92 17.6701C30.92 17.6701 30.11 16.8601 30.11 15.8601C30.11 14.8601 30.92 14.0601 31.92 14.0601C32.92 14.0601 33.73 14.8701 33.73 15.8601Z" fill="white"/>
</g>
<defs>
<clipPath id="clip0_13_430">
<rect width="47.78" height="47.79" fill="white"/>
</clipPath>
</defs>
</svg>
