<svg width="432" height="169" viewBox="0 0 432 169" fill="none" xmlns="http://www.w3.org/2000/svg">
<g clip-path="url(#clip0_13_361)">
<path d="M18.18 79.35L0 22.54H12.5L25.16 69.29L38.39 22.54H47.97L46.02 29.28L58.76 69.29L71.99 22.54H82.46L64.6 79.35H52.19L41.07 44.05L30.43 79.35H18.18Z" fill="#FEFEFE"/>
<path d="M91.38 73.76C87.65 70.03 85.78 65.24 85.78 59.31C85.78 53.38 87.73 48.51 91.62 44.7C95.6 40.8 100.71 38.86 106.96 38.86C113.21 38.86 117.59 40.73 120.76 44.38C123.93 48.03 125.31 52.9 124.82 58.91H96.5V60.69C96.5 67.26 100.23 72.62 107.46 72.62C113.38 72.62 116.79 69.78 116.87 65.32L123.2 70.19C121.82 76.28 116.38 79.36 106.97 79.36C100.4 79.36 95.2 77.5 91.39 73.76M115.98 53.15C115.57 48.2 112.65 45.04 107.21 45.04C102.26 45.04 98.2 48.53 97.23 53.15H115.98Z" fill="#FEFEFE"/>
<path d="M129.36 70.1L135.93 65.8C136.17 70.59 140.07 73.26 146.32 73.26C152.08 73.26 155.33 71.4 155.33 68.39C155.33 66.85 154.6 65.63 153.22 64.9C151.84 64.17 149.08 63.44 144.94 62.87C135.45 61.65 130.74 57.68 130.74 50.86C130.74 44.04 137.15 38.85 147.54 38.85C156.87 38.85 162.39 42.42 164.02 48.34L157.53 52.32C157.45 47.78 153.71 45.1 147.87 45.1C142.43 45.1 139.75 46.56 139.75 49.48C139.75 52.08 141.7 53.54 148.84 54.51C160.28 56.05 164.83 60.03 164.83 67.17C164.83 74.88 157.85 79.34 146.57 79.34C136.59 79.34 130.91 75.69 129.36 70.09" fill="#FEFEFE"/>
<path d="M172.83 66.05V31.39L183.06 27.9V39.99H197.18V46.73H183.06V65.31C183.06 69.94 184.76 72.21 188.09 72.21C191.42 72.21 193.12 70.67 193.45 67.5L198.64 72.13C197.67 76.59 193.61 79.35 187.03 79.35C177.21 79.35 172.83 75.05 172.83 66.04" fill="#FEFEFE"/>
<path d="M208.22 44.38C212.03 40.73 217.23 38.86 223.8 38.86C230.37 38.86 235.65 40.73 239.46 44.38C243.27 48.03 245.14 52.82 245.14 58.83C245.14 64.84 243.19 69.87 239.38 73.68C235.57 77.49 230.37 79.36 223.8 79.36C217.23 79.36 212.03 77.5 208.22 73.68C204.4 69.86 202.54 64.92 202.54 58.83C202.54 52.74 204.41 48.04 208.22 44.38ZM234.35 58.83C234.35 50.71 230.86 45.52 223.8 45.52C216.74 45.52 213.25 50.8 213.25 58.83C213.25 66.86 216.9 72.54 223.8 72.54C230.7 72.54 234.35 67.18 234.35 58.83Z" fill="#FEFEFE"/>
<path d="M253.56 79.35V47.7C253.56 45.59 252.67 44.13 250.96 43.24L257.13 39.75C259.65 40.48 261.03 43.48 261.03 46.97C263.87 42.18 268.5 39.83 274.99 39.83C284.97 39.83 291.87 44.62 291.87 53.63V79.36H281.65V54.85C281.65 49.9 278.32 47.14 273.05 47.14C267.78 47.14 263.8 50.14 263.8 55.09V79.36H253.57L253.56 79.35Z" fill="#FEFEFE"/>
<path d="M39.38 141.39C34.59 136.03 32.16 128.89 32.16 120.04C32.16 111.19 34.59 104.13 39.38 98.78C44.25 93.43 51.23 90.75 60.24 90.75C71.84 90.75 78.74 94.56 80.93 102.19L73.54 107.23C72.89 101.79 67.45 98.46 60.31 98.46C49.19 98.46 43.75 106.41 43.75 120.05C43.75 133.69 49.19 141.64 60.23 141.64C67.37 141.64 72.89 138.31 73.54 132.87L80.93 137.9C78.74 145.61 71.84 149.42 60.32 149.42C51.23 149.42 44.25 146.74 39.38 141.39ZM85.47 137.9C85.47 133.6 87.82 130.03 92.53 127.35C97.32 124.59 103.81 123.21 112.09 123.13C112.09 117.29 109.49 114.94 103.57 114.94C98.05 114.94 94.64 117.62 94.32 122.4L87.02 118.42C88.4 112.5 94.97 108.92 104.39 108.92C116.16 108.92 122.41 112.73 122.41 123.12V141.79C122.41 143.74 123.3 145.12 125.09 145.93L118.68 149.42C116.16 148.61 114.78 146.34 114.7 142.6C112.02 147.15 106.99 149.42 99.6 149.42C90.92 149.42 85.48 145.36 85.48 137.9M112.1 134.98V128.57C101.39 128.98 96.03 131.9 96.03 137.33C96.03 140.98 98.54 143.09 102.76 143.09C108.04 143.09 112.09 140.09 112.09 134.98M135.06 168.11V116.8C135.06 114.69 134.17 113.23 132.46 112.34L138.79 108.85C141.39 109.58 142.85 112.58 142.85 116.07C144.88 111.93 149.51 108.93 156.08 108.93C162.65 108.93 167.36 110.8 171.1 114.53C174.83 118.18 176.7 123.05 176.7 128.98C176.7 134.91 174.83 139.69 171.02 143.59C167.29 147.49 162.34 149.43 156.17 149.43C151.22 149.43 147.65 148.21 145.29 145.78V163.21L135.06 168.11ZM165.9 128.81C165.9 120.78 162.25 115.58 155.02 115.58C149.26 115.58 145.28 118.66 145.28 123.86V134.49C145.28 139.61 149.18 142.69 155.02 142.69C162.08 142.69 165.9 136.93 165.9 128.81ZM205.58 136.11V101.45L215.81 97.96V110.05H229.93V116.79H215.81V135.38C215.81 140.01 217.51 142.28 220.84 142.28C224.17 142.28 225.87 140.74 226.2 137.57L231.39 142.2C230.42 146.66 226.36 149.42 219.78 149.42C209.96 149.42 205.58 145.12 205.58 136.11ZM235.28 137.9C235.28 133.6 237.63 130.03 242.34 127.35C247.13 124.59 253.62 123.21 261.9 123.13C261.9 117.29 259.3 114.94 253.38 114.94C247.86 114.94 244.45 117.62 244.13 122.4L236.83 118.42C238.21 112.5 244.78 108.92 254.2 108.92C265.97 108.92 272.22 112.73 272.22 123.12V141.79C272.22 143.74 273.11 145.12 274.9 145.93L268.49 149.42C265.97 148.61 264.59 146.34 264.51 142.6C261.83 147.15 256.8 149.42 249.41 149.42C240.73 149.42 235.29 145.36 235.29 137.9M261.91 134.98V128.57C251.2 128.98 245.84 131.9 245.84 137.33C245.84 140.98 248.36 143.09 252.58 143.09C257.86 143.09 261.91 140.09 261.91 134.98ZM281.65 149.42V92.2L291.88 90.41V149.41H281.65V149.42ZM186.43 111.03H196.66V149.42H186.43V111.03ZM191.53 97.78C188.71 97.78 186.43 100.06 186.43 102.88C186.43 105.7 188.71 107.98 191.53 107.98C194.35 107.98 196.63 105.7 196.63 102.88C196.63 100.06 194.35 97.78 191.53 97.78Z" fill="#FEFEFE"/>
<path d="M377.97 79.4999H386.81V22.7399C386.81 18.4199 384.83 14.3299 381.43 11.6599L377.97 8.93994V79.4999Z" fill="#B09700"/>
<path d="M362.18 3.47V79.5H371.02V3.47L366.6 0L362.18 3.47Z" fill="#B09700"/>
<path d="M388.38 79.5H397.25L401.12 35.26C401.53 30.52 399.53 25.89 395.79 22.96L393.48 21.14L388.37 79.5H388.38Z" fill="#B09700"/>
<path d="M398.77 79.5H407.75L413.59 46.4C414.49 41.28 412.51 36.09 408.42 32.88L407.17 31.9L398.78 79.51L398.77 79.5Z" fill="#B09700"/>
<path d="M409.2 79.5C414.6 79.5 419.32 75.87 420.72 70.66L431.18 31.61L423.27 37.83C420.88 39.71 419.16 42.32 418.37 45.26L409.19 79.5H409.2Z" fill="#B09700"/>
<path d="M346.39 79.4999H355.23V8.93994L351.77 11.6599C348.37 14.3299 346.39 18.4099 346.39 22.7399V79.4999Z" fill="#B09700"/>
<path d="M335.94 79.5H344.81L339.7 21.14L337.39 22.96C333.65 25.9 331.65 30.53 332.06 35.27L335.93 79.51L335.94 79.5Z" fill="#B09700"/>
<path d="M325.46 79.5H334.44L326.05 31.89L324.8 32.87C320.72 36.08 318.73 41.28 319.63 46.39L325.47 79.49L325.46 79.5Z" fill="#B09700"/>
<path d="M324 79.5L314.82 45.26C314.03 42.32 312.31 39.71 309.92 37.83L302.01 31.61L312.47 70.66C313.87 75.87 318.59 79.5 323.99 79.5" fill="#B09700"/>
</g>
<defs>
<clipPath id="clip0_13_361">
<rect width="431.18" height="168.11" fill="white"/>
</clipPath>
</defs>
</svg>
