<svg width="48" height="48" viewBox="0 0 48 48" fill="none" xmlns="http://www.w3.org/2000/svg">
<g clip-path="url(#clip0_13_435)">
<path d="M47.79 23.89C47.79 37.09 37.09 47.78 23.9 47.78C10.71 47.78 0 37.09 0 23.89C0 10.69 10.7 0 23.89 0C37.08 0 47.78 10.7 47.78 23.89" fill="#5C5C5B"/>
<path d="M37.28 16C37.28 15.86 37.2801 15.86 37.1301 15.86C36.7801 15.86 36.43 15.82 36.09 15.77C34.84 15.58 30.79 13.45 30.1 9.97001C30.09 9.90001 29.93 9.04001 29.93 8.67001C29.93 8.51001 29.9301 8.51001 29.7701 8.50001H29.66C28.07 8.50001 26.49 8.50001 24.9 8.50001C24.58 8.50001 24.62 8.46001 24.62 8.78001C24.62 15.66 24.62 22.54 24.62 29.42C24.62 29.68 24.62 29.93 24.57 30.18C24.33 31.51 23.65 32.55 22.5 33.27C21.5 33.89 20.41 34.06 19.26 33.83C18.9 33.76 18.56 33.62 18.21 33.49C18.18 33.47 18.16 33.44 18.13 33.41C18.01 33.31 17.89 33.23 17.77 33.15C16.3 32.13 15.6 30.72 15.82 28.96C16.03 27.17 17.07 25.95 18.76 25.33C19.27 25.14 19.8 25.07 20.34 25.09C20.69 25.11 21.04 25.15 21.37 25.25C21.49 25.28 21.55 25.25 21.56 25.12C21.56 25.08 21.56 25.03 21.56 24.99C21.56 23.75 21.51 21.06 21.51 21.05C21.51 20.69 21.51 20.34 21.51 19.98C21.51 19.88 21.46 19.86 21.37 19.85C20.73 19.77 20.09 19.76 19.45 19.81C18.56 19.88 17.7 20.06 16.86 20.36C15.52 20.84 14.35 21.58 13.34 22.58C12.47 23.43 11.79 24.42 11.29 25.53C10.81 26.59 10.53 27.71 10.46 28.87C10.43 29.37 10.43 29.88 10.48 30.38C10.54 31.08 10.68 31.76 10.89 32.43C11.5 34.35 12.61 35.92 14.18 37.17C14.34 37.3 14.49 37.44 14.69 37.52C14.77 37.59 14.85 37.66 14.93 37.73C15.19 37.92 15.46 38.09 15.74 38.23C17.5 39.1 19.36 39.46 21.32 39.22C23.86 38.91 25.98 37.78 27.64 35.84C29.21 34.01 29.97 31.87 29.98 29.48C30 26.05 29.98 22.63 29.98 19.2C29.98 19.12 29.9301 19 30.0201 18.96C30.0901 18.93 30.16 19.02 30.23 19.06C31.5 19.9 32.88 20.5 34.37 20.84C35.24 21.04 36.11 21.16 37 21.16C37.28 21.16 37.32 21.15 37.32 20.87C37.32 19.65 37.26 16.33 37.26 16" fill="white"/>
</g>
<defs>
<clipPath id="clip0_13_435">
<rect width="47.79" height="47.78" fill="white"/>
</clipPath>
</defs>
</svg>
